<?xml version="1.0" encoding="utf-8"?>
<!-- Generator: Adobe Illustrator 22.1.0, SVG Export Plug-In . SVG Version: 6.00 Build 0)  -->
<svg version="1.1" id="Camada_1" xmlns="http://www.w3.org/2000/svg" xmlns:xlink="http://www.w3.org/1999/xlink" x="0px" y="0px"
	 viewBox="0 0 170.1 170.1" style="enable-background:new 0 0 170.1 170.1;" xml:space="preserve">
<style type="text/css">
	.st0{fill:#4D4D4F;}
	.st1{fill:none;stroke:#000000;stroke-width:0.25;stroke-miterlimit:10;stroke-dasharray:6.0377,3.0189;}
	.st2{fill:#FFFFFF;}
	.st3{fill:url(#SVGID_1_);}
	.st4{fill:#E5B232;}
</style>
<g>
	<g>
		<path class="st0" d="M108.9,40.6c-0.7-4.6-4.5-8.2-9-8.4c-1.7-4.2-5.6-7-10-7c-1.4,0-2.8,0.3-4.2,0.9c-1.8-1.4-4.1-2.2-6.4-2.2
			c-4.8,0-8.9,3.3-10.3,8c-4,0.7-7.1,4.4-7.2,8.8c-3.7,1-6.5,4.3-6.5,8.4v3.1h-4.8c-2.7,0-4.8,2.2-4.8,4.8v14.4
			c0,2.7,2.2,4.8,4.8,4.8h4.8v3.1c0,4.8,3.9,8.7,8.7,8.7h16.6v4.8H67.2c-1.3,0-2.4,1.1-2.4,2.4c0,1.3,1.1,2.4,2.4,2.4h36.6
			c1.3,0,2.4-1.1,2.4-2.4c0-1.3-1.1-2.4-2.4-2.4H90.3v-4.8H107c4.8,0,8.7-3.9,8.7-8.7V49.1C115.7,44.9,112.8,41.5,108.9,40.6z
			 M70.5,36.5c0.1,0,0.1,0,0.2,0l2.5,0l0.3-2.1c0.4-3.3,3-5.7,6-5.7c1.6,0,3.1,0.7,4.3,1.9l1.4,1.5l1.7-1.2c0.1-0.1,0.3-0.2,0.4-0.3
			c0.9-0.5,1.8-0.7,2.8-0.7c2.8,0,5.3,2.2,5.9,5.2l0.5,2.4l2.4-0.5c0.3-0.1,0.6-0.1,0.9-0.1c2,0,3.7,1.4,4.4,3.3H66.7
			C66.9,38.2,68.5,36.5,70.5,36.5z M51.8,71.5c-0.7,0-1.2-0.5-1.2-1.2v-12c0-0.7,0.5-1.2,1.2-1.2h3.6v14.4H51.8z M110.9,79.4
			c0,2.1-1.7,3.9-3.9,3.9H64c-2.1,0-3.9-1.7-3.9-3.9v-3.1v-4.8V57v-4.8v-3.1c0-2.1,1.7-3.9,3.9-3.9h43c2.1,0,3.9,1.7,3.9,3.9V79.4z"
			/>
		<path class="st0" d="M104.2,53.7c-0.1,0-0.2,0-0.4,0c-1.9,0.4-5.4,0.9-8.3,0.8C90,54.3,83,49.9,75.3,49.9c-3.7,0-7.5,1-9.4,1.7
			c-0.7,0.3-1.2,1-1.2,1.8v23.1c0,1.1,0.9,2,1.9,2h37.6c1.1,0,1.9-0.9,1.9-2V55.6C106.2,54.5,105.3,53.7,104.2,53.7z M78,70.1
			l-2.2,2.2l-6.6-6.6l6.6-6.6l2.2,2.2l-4.4,4.4L78,70.1z M83.8,74.4h-3.6L86,56.9h3.6L83.8,74.4z M94.1,72.3l-2.2-2.2l4.4-4.4
			l-4.4-4.4l2.2-2.2l6.6,6.6L94.1,72.3z"/>
	</g>
	<g>
		<path class="st0" d="M30.9,128.5v-13.7h-2.6v-2.4h8.4v2.4h-2.5v13.7H30.9z"/>
		<path class="st0" d="M38.1,128.5v-16.2h7v2.3h-3.8v4.3h2.9v2.3h-2.9v5.1h3.8v2.2H38.1z"/>
		<path class="st0" d="M51.3,128.7c-0.9,0-1.6-0.1-2.3-0.4s-1.1-0.6-1.5-1.1c-0.4-0.5-0.6-1.1-0.8-1.7c-0.2-0.6-0.2-1.4-0.2-2.2
			v-5.7c0-0.9,0.1-1.6,0.2-2.3c0.2-0.6,0.4-1.2,0.8-1.7c0.4-0.5,0.8-0.9,1.5-1.1c0.6-0.2,1.4-0.4,2.3-0.4c0.8,0,1.6,0.1,2.2,0.3
			c0.6,0.2,1.1,0.5,1.4,1c0.3,0.4,0.6,0.9,0.7,1.5c0.2,0.5,0.2,1.2,0.2,1.9v1.4h-3.2v-1.5c0-0.2,0-0.3,0-0.4s0-0.2,0-0.4
			c0-0.2,0-0.3,0-0.3c0-0.1,0-0.2-0.1-0.3s-0.1-0.2-0.1-0.3s-0.1-0.1-0.2-0.2s-0.1-0.1-0.2-0.2c-0.1,0-0.2-0.1-0.3-0.1
			c-0.1,0-0.3,0-0.4,0c-0.3,0-0.5,0-0.6,0.1c-0.2,0.1-0.3,0.2-0.4,0.3c-0.1,0.1-0.2,0.3-0.2,0.5c-0.1,0.2-0.1,0.4-0.1,0.6
			s0,0.4,0,0.7v7.2c0,0.8,0.1,1.4,0.3,1.7c0.2,0.4,0.6,0.6,1.1,0.6c0.2,0,0.4,0,0.5-0.1c0.2-0.1,0.3-0.1,0.4-0.3s0.2-0.2,0.2-0.4
			c0.1-0.1,0.1-0.3,0.1-0.5c0-0.2,0-0.4,0-0.5s0-0.3,0-0.6v-1.6h3.2v1.4c0,0.7-0.1,1.4-0.2,2c-0.1,0.6-0.4,1.1-0.7,1.5
			c-0.3,0.5-0.8,0.8-1.4,1C52.9,128.6,52.2,128.7,51.3,128.7z"/>
		<path class="st0" d="M57.9,128.5v-16.2h3.3v6.6h2.8v-6.6h3.3v16.2h-3.3v-7.2h-2.8v7.2H57.9z"/>
		<path class="st0" d="M76.9,130.1c-1.4,0-2.5-0.4-3.3-1.3c-0.8-0.9-1.3-2-1.3-3.4c0-1.2,0.3-2.3,0.8-3.4c0.5-1.1,1.2-2,2.1-2.8
			c-0.1-0.3-0.4-0.7-0.7-1.3c-0.3-0.6-0.6-1.1-0.7-1.4c-0.2-0.3-0.3-0.8-0.5-1.3c-0.1-0.5-0.2-1-0.2-1.5c0-1.3,0.4-2.4,1.2-3.3
			c0.8-0.9,1.9-1.3,3.2-1.3c1.3,0,2.4,0.4,3.3,1.1c0.9,0.8,1.3,1.8,1.3,3.1c0,0.3,0,0.7-0.1,1s-0.1,0.7-0.2,0.9s-0.2,0.6-0.4,0.9
			s-0.3,0.6-0.5,0.8c-0.1,0.2-0.3,0.4-0.6,0.8c-0.3,0.3-0.5,0.5-0.6,0.7s-0.3,0.3-0.6,0.7s-0.5,0.5-0.6,0.6l2.5,4.5
			c0.2-0.4,0.4-1,0.5-1.8c0.1-0.8,0.2-1.6,0.3-2.4h2.9c0,2.2-0.5,4.3-1.6,6.3c0.2,0.2,0.4,0.4,0.7,0.6s0.7,0.3,1,0.3v3
			c-0.3,0-0.5,0.1-0.6,0.1c-0.2,0-0.3,0-0.5-0.1s-0.3-0.1-0.4-0.1c-0.1,0-0.3-0.1-0.5-0.2c-0.2-0.1-0.3-0.2-0.4-0.2
			c-0.1-0.1-0.2-0.2-0.4-0.3c-0.2-0.1-0.3-0.2-0.3-0.3c-0.1,0-0.2-0.2-0.4-0.3c-0.2-0.2-0.3-0.3-0.3-0.3c-0.5,0.6-1,1-1.7,1.3
			C78.5,130,77.7,130.1,76.9,130.1z M76.9,127.4c0.8,0,1.5-0.4,2-1.1c-1.5-2.9-2.3-4.4-2.4-4.7c-0.7,1.1-1.1,2.3-1.1,3.4
			c0,0.7,0.1,1.2,0.4,1.6C76.1,127.2,76.5,127.4,76.9,127.4z M77.3,117.5c0.4-0.6,0.7-1.3,1-2.2s0.5-1.6,0.5-2.3
			c0-0.4-0.1-0.7-0.4-0.9c-0.2-0.2-0.5-0.3-0.9-0.3c-0.4,0-0.7,0.2-0.9,0.5s-0.3,0.7-0.3,1.2c0,0.3,0,0.7,0.1,1.1s0.2,0.8,0.3,1.1
			c0.1,0.3,0.2,0.7,0.3,1.1C77.2,117.2,77.3,117.4,77.3,117.5z"/>
		<path class="st0" d="M90,130.1c-1.4,0-2.5-0.4-3.3-1.3c-0.8-0.9-1.3-2-1.3-3.4c0-1.2,0.3-2.3,0.8-3.4c0.5-1.1,1.2-2,2.1-2.8
			c-0.1-0.3-0.4-0.7-0.7-1.3c-0.3-0.6-0.6-1.1-0.7-1.4s-0.3-0.8-0.5-1.3c-0.1-0.5-0.2-1-0.2-1.5c0-1.3,0.4-2.4,1.2-3.3
			c0.8-0.9,1.9-1.3,3.2-1.3c1.3,0,2.4,0.4,3.3,1.1c0.9,0.8,1.3,1.8,1.3,3.1c0,0.3,0,0.7-0.1,1s-0.1,0.7-0.2,0.9s-0.2,0.6-0.4,0.9
			c-0.2,0.3-0.3,0.6-0.5,0.8c-0.1,0.2-0.3,0.4-0.6,0.8c-0.3,0.3-0.5,0.5-0.6,0.7c-0.1,0.1-0.3,0.3-0.6,0.7s-0.5,0.5-0.6,0.6l2.5,4.5
			c0.2-0.4,0.4-1,0.5-1.8s0.2-1.6,0.3-2.4h2.9c0,2.2-0.5,4.3-1.6,6.3c0.2,0.2,0.4,0.4,0.7,0.6s0.7,0.3,1,0.3v3
			c-0.3,0-0.5,0.1-0.6,0.1c-0.2,0-0.3,0-0.5-0.1s-0.3-0.1-0.4-0.1c-0.1,0-0.3-0.1-0.5-0.2c-0.2-0.1-0.3-0.2-0.4-0.2
			c-0.1-0.1-0.2-0.2-0.4-0.3s-0.3-0.2-0.3-0.3c-0.1,0-0.2-0.2-0.4-0.3s-0.3-0.3-0.3-0.3c-0.5,0.6-1,1-1.7,1.3
			C91.6,130,90.8,130.1,90,130.1z M90,127.4c0.8,0,1.5-0.4,2-1.1c-1.5-2.9-2.3-4.4-2.4-4.7c-0.7,1.1-1.1,2.3-1.1,3.4
			c0,0.7,0.1,1.2,0.4,1.6C89.3,127.2,89.6,127.4,90,127.4z M90.4,117.5c0.4-0.6,0.7-1.3,1-2.2s0.5-1.6,0.5-2.3
			c0-0.4-0.1-0.7-0.4-0.9c-0.2-0.2-0.5-0.3-0.9-0.3c-0.4,0-0.7,0.2-0.9,0.5c-0.2,0.3-0.3,0.7-0.3,1.2c0,0.3,0,0.7,0.1,1.1
			c0.1,0.4,0.2,0.8,0.3,1.1c0.1,0.3,0.2,0.7,0.3,1.1C90.3,117.2,90.4,117.4,90.4,117.5z"/>
		<path class="st0" d="M103.2,128.5v-16.2h4.1c0.6,0,1.1,0,1.6,0.1c0.5,0.1,0.9,0.2,1.4,0.4c0.4,0.2,0.8,0.4,1.1,0.7
			c0.3,0.3,0.5,0.7,0.7,1.2c0.2,0.5,0.2,1,0.2,1.7c0,0,0,0.1,0,0.1c0,1.9-0.8,3-2.4,3.3c1.9,0.3,2.8,1.6,2.9,3.9c0,0,0,0.1,0,0.1
			c0,1.5-0.4,2.7-1.2,3.5c-0.8,0.8-2,1.2-3.5,1.2H103.2z M106.4,118.9h0.8c0.8,0,1.4-0.2,1.7-0.5s0.4-0.9,0.4-1.7
			c0-0.7-0.2-1.3-0.6-1.6c-0.4-0.3-1-0.4-1.8-0.4h-0.5V118.9z M106.4,126.2h0.9c0.8,0,1.4-0.2,1.7-0.6s0.5-1,0.5-1.9
			c0-0.9-0.2-1.6-0.5-2s-0.9-0.6-1.8-0.6h-0.8V126.2z"/>
		<path class="st0" d="M114.6,128.5v-16.2h7v2.3h-3.8v4.3h2.9v2.3h-2.9v5.1h3.8v2.2H114.6z"/>
		<path class="st0" d="M123.4,128.5v-16.2h7v2.3h-3.8v4.3h2.9v2.3h-2.9v5.1h3.8v2.2H123.4z"/>
		<path class="st0" d="M132.1,128.5v-16.2h4.1c0.9,0,1.6,0.1,2.2,0.2c0.6,0.1,1.2,0.4,1.6,0.7c0.5,0.3,0.8,0.8,1.1,1.3
			c0.2,0.6,0.4,1.3,0.4,2.1c0,1-0.1,1.9-0.4,2.5c-0.3,0.6-0.8,1.1-1.5,1.5l2.2,7.9h-3.4l-1.9-7.3h-1.1v7.3H132.1z M135.4,119.2h0.8
			c0.8,0,1.4-0.2,1.7-0.6c0.3-0.4,0.5-1,0.5-1.8c0-0.8-0.1-1.4-0.4-1.8c-0.3-0.4-0.8-0.6-1.6-0.6h-1V119.2z"/>
	</g>
</g>
</svg>
